<?xml version="1.0" encoding="utf-8"?>
<!-- Generator: Adobe Illustrator 22.1.0, SVG Export Plug-In . SVG Version: 6.00 Build 0)  -->
<svg version="1.1" id="Layer_1" xmlns="http://www.w3.org/2000/svg" xmlns:xlink="http://www.w3.org/1999/xlink" x="0px" y="0px"
	 viewBox="0 0 141.7 62.5" style="enable-background:new 0 0 141.7 62.5;" xml:space="preserve">
<style type="text/css">
	.st0{fill:none;}
	.st1{fill:#75539D;}
	.st2{fill:#68AFE3;}
	.st3{fill:#C53880;}
	.st4{fill:#AACA4B;}
	.st5{fill:#E8B130;}
	.st6{opacity:0.15;fill:url(#SVGID_2_);enable-background:new    ;}
</style>
<pattern  y="62.5" width="400" height="400" patternUnits="userSpaceOnUse" id="SVGID_1_" viewBox="0 -400.1 400 400" style="overflow:visible;">
	<g>
		<rect x="0" y="-400.1" class="st0" width="400" height="400"/>
		<g>
			<rect x="0" y="-400.1" class="st0" width="400" height="400"/>
			<g>
				<rect x="0" y="-400.1" class="st0" width="400" height="400"/>
				<g>
					<rect x="0" y="-400.1" class="st0" width="400" height="400"/>
					<path class="st0" d="M323.8-333.5c0,8.1-6.6,14.6-14.6,14.6c-8.1,0-14.6-6.6-14.6-14.6c0-8.1,6.6-14.6,14.6-14.6
						C317.2-348.2,323.8-341.6,323.8-333.5z"/>
					<path class="st0" d="M282.1-200.1c0,8.1-6.6,14.6-14.6,14.6c-8.1,0-14.6-6.6-14.6-14.6c0-8.1,6.6-14.6,14.6-14.6
						S282.1-208.2,282.1-200.1z"/>
					<circle class="st0" cx="209.1" cy="-366.6" r="17.9"/>
					<path class="st0" d="M108.3-53.2c0-8.1,6.6-14.6,14.6-14.6c8.1,0,14.6,6.6,14.6,14.6c0,8.1-6.6,14.6-14.6,14.6
						S108.3-45.2,108.3-53.2z"/>
					<path class="st0" d="M77.5-187.9c0-8.1,6.6-14.6,14.6-14.6c8.1,0,14.6,6.6,14.6,14.6c0,8.1-6.6,14.6-14.6,14.6
						C84.1-173.2,77.5-179.8,77.5-187.9z"/>
					<path class="st0" d="M87.7-322.8c0-8.1,6.6-14.6,14.6-14.6c8.1,0,14.6,6.6,14.6,14.6c0,8.1-6.6,14.6-14.6,14.6
						C94.3-308.1,87.7-314.7,87.7-322.8z"/>
					<path class="st1" d="M183.7-366.6c0,14,11.4,25.4,25.4,25.4s25.4-11.4,25.4-25.4S223.1-392,209.1-392S183.7-380.6,183.7-366.6z
						 M191.2-366.6c0-9.9,8-17.9,17.9-17.9s17.9,8,17.9,17.9s-8,17.9-17.9,17.9C199.2-348.6,191.2-356.7,191.2-366.6z"/>
					<path class="st2" d="M122-164.8c-1.9-3.8-2.8-7.9-2.8-11.9c0-10,5.6-19.7,15.2-24.4c13.4-6.6,29.7-1,36.3,12.5
						c0.9,1.9,0.1,4.1-1.7,5c-1.9,0.9-4.1,0.1-5-1.7c-4.8-9.7-16.5-13.8-26.3-9c-9.7,4.8-13.8,16.5-9,26.3c0.9,1.9,0.1,4.1-1.7,5
						C125.1-162.1,122.9-162.9,122-164.8z"/>
					<path class="st3" d="M145.7-359c13.4-6.6,29.7-1,36.3,12.5c0.9,1.9,0.1,4.1-1.7,5c-1.9,0.9-4.1,0.1-5-1.7
						c-4.8-9.7-16.5-13.8-26.3-9c-9.7,4.8-13.8,16.6-9,26.3c0.9,1.9,0.1,4.1-1.7,5c-1.9,0.9-4.1,0.1-5-1.7
						c-1.9-3.8-2.8-7.9-2.8-11.9C130.5-344.6,136.1-354.3,145.7-359z"/>
					<path class="st4" d="M88.8-117.5c-0.8-3.2-1.2-6.4-1.2-9.6c0-6.8,1.8-13.7,5.3-19.9c1-1.8,3.3-2.4,5.1-1.4
						c1.8,1,2.4,3.3,1.4,5.1c-4.2,7.4-5.4,15.9-3.3,23.9c2,8,6.9,14.5,13.9,18.4c14.4,8.1,33.1,2.3,41.6-13c1-1.8,3.3-2.4,5.1-1.4
						s2.4,3.3,1.4,5.1c-10.6,18.8-33.9,25.9-51.9,15.8C97.5-99.4,91.3-107.6,88.8-117.5z"/>
					<path class="st1" d="M385.3-252c-2.1,0.2-3.9-1.3-4.1-3.4c-0.2-2.1,1.3-3.9,3.4-4.1c6.8-0.6,12.4-4.7,15.4-10.2v11.6
						C396-254.7,390.9-252.5,385.3-252z"/>
					<path class="st1" d="M380.9-298.6c-2.1,0.2-3.9-1.3-4.1-3.4c0-0.1,0-0.2,0-0.4c0-1.9,1.5-3.5,3.4-3.7
						c7.4-0.7,14.5,1.7,19.8,6.1v11.6C396.4-295.1,388.9-299.3,380.9-298.6z"/>
					<path class="st5" d="M400-32.8c-3.1,1.4-6.6,2.2-10.2,2.2c-14,0-25.4-11.4-25.4-25.4s11.4-25.4,25.4-25.4
						c3.6,0,7.1,0.8,10.2,2.2v8.6c-2.9-2-6.4-3.2-10.2-3.2c-9.9,0-17.9,8-17.9,17.9s8,17.9,17.9,17.9c3.8,0,7.3-1.2,10.2-3.2V-32.8z
						"/>
					<path class="st5" d="M309.1-355.7c-12.2,0-22.1,9.9-22.1,22.1s9.9,22.1,22.1,22.1s22.1-9.9,22.1-22.1
						C331.3-345.8,321.4-355.7,309.1-355.7z M309.1-348.2c8.1,0,14.6,6.6,14.6,14.6c0,8.1-6.6,14.6-14.6,14.6
						c-8.1,0-14.6-6.6-14.6-14.6S301.1-348.2,309.1-348.2z"/>
					<path class="st4" d="M267.4-222.2c-12.2,0-22.1,9.9-22.1,22.1c0,12.2,9.9,22.1,22.1,22.1s22.1-9.9,22.1-22.1
						C289.6-212.3,279.7-222.2,267.4-222.2z M267.4-214.7c8.1,0,14.6,6.6,14.6,14.6c0,8.1-6.6,14.6-14.6,14.6
						c-8.1,0-14.6-6.6-14.6-14.6C252.8-208.2,259.4-214.7,267.4-214.7z"/>
					<path class="st1" d="M92.2-165.7c12.2,0,22.1-9.9,22.1-22.1c0-12.2-9.9-22.1-22.1-22.1C80-210,70-200.1,70-187.9
						S80-165.7,92.2-165.7z M92.2-173.2c-8.1,0-14.6-6.6-14.6-14.6c0-8.1,6.6-14.6,14.6-14.6c8.1,0,14.6,6.6,14.6,14.6
						C106.8-179.8,100.3-173.2,92.2-173.2z"/>
					<path class="st4" d="M378.3-355.1c0-12,9.7-21.9,21.7-22.1v7.5c-7.9,0.3-14.2,6.7-14.2,14.6s6.3,14.4,14.2,14.6v7.5
						C388-333.2,378.3-343.1,378.3-355.1z"/>
					<path class="st4" d="M102.4-300.6c12.2,0,22.1-9.9,22.1-22.1c0-12.2-9.9-22.1-22.1-22.1s-22.1,9.9-22.1,22.1
						C80.2-310.6,90.1-300.6,102.4-300.6z M102.4-308.1c-8.1,0-14.6-6.6-14.6-14.6c0-8.1,6.6-14.6,14.6-14.6
						c8.1,0,14.6,6.6,14.6,14.6S110.4-308.1,102.4-308.1z"/>
					<path class="st3" d="M122.9-31.1c12.2,0,22.1-9.9,22.1-22.1s-9.9-22.1-22.1-22.1s-22.1,9.9-22.1,22.1S110.7-31.1,122.9-31.1z
						 M122.9-38.6c-8.1,0-14.6-6.6-14.6-14.6c0-8.1,6.6-14.6,14.6-14.6c8.1,0,14.6,6.6,14.6,14.6C137.6-45.2,131-38.6,122.9-38.6z"
						/>
					<path class="st3" d="M293.9-251c0.3,1,0.2,2-0.3,2.9s-1.3,1.5-2.3,1.8l-35.3,10c-2,0.6-4.1-0.6-4.6-2.6c-0.1-0.3-0.1-0.7-0.1-1
						c0-1.6,1.1-3.1,2.7-3.6l32-9.1c-0.7-9.1,5-17.7,14.1-20.3c10.3-2.9,21.1,3.1,24,13.4c0.6,2-0.6,4.1-2.6,4.6
						c-2,0.6-4.1-0.6-4.6-2.6c-1.8-6.3-8.4-10-14.7-8.2C295.8-264,292.1-257.3,293.9-251z"/>
					<path class="st5" d="M8-186.3c-0.2-0.5-0.3-1-0.3-1.6c0-1.4,0.8-2.8,2.2-3.4l43.9-20.3c-2.3-8.7,1.7-18.2,10.1-22.4
						c9.6-4.8,21.3-0.8,26,8.8c0.9,1.9,0.2,4.1-1.7,5c-1.9,0.9-4.1,0.2-5-1.7c-2.9-5.9-10.1-8.3-16-5.4c-5.9,2.9-8.3,10.1-5.4,16
						c0.5,0.9,0.5,2,0.2,2.9c-0.3,1-1,1.7-2,2.2l-47,21.8C11.1-183.6,8.9-184.4,8-186.3z"/>
					<path class="st4" d="M262.6-387.3c-7-1.4-12.3-6.5-14.5-12.8h8.2c1.7,2.7,4.4,4.7,7.7,5.4c5,1,10-1.3,12.5-5.4h39l2.9,0.6
						c2,0.4,3.3,2.4,2.9,4.4s-2.4,3.3-4.4,2.9l-32.6-6.7C280.9-390.5,271.8-385.4,262.6-387.3z"/>
					<path class="st3" d="M140.7-298.9c1.8,1.1,2.3,3.4,1.2,5.2c-1.1,1.8-3.4,2.3-5.2,1.2c-5.6-3.5-12.9-1.8-16.4,3.7
						c-3.5,5.6-1.8,12.9,3.7,16.4c0.8,0.5,1.4,1.4,1.7,2.3c0.2,1,0,2-0.5,2.8l-19.6,31c-1.1,1.8-3.4,2.3-5.2,1.2
						c-1.1-0.7-1.7-1.9-1.7-3.2c0-0.7,0.2-1.4,0.6-2l17.8-28.2c-6.6-6.2-8.1-16.5-3.1-24.5C119.6-301.9,131.6-304.6,140.7-298.9z"/>
					<path class="st2" d="M246.6-285c1.5,1.4,1.7,3.7,0.3,5.3s-3.7,1.7-5.3,0.4c-0.6-0.6-12.3-11.1-12.3-35.6
						c0-7.7,1.2-16.7,4.2-27.3c0.6-2,2.6-3.1,4.6-2.6c2,0.6,3.1,2.6,2.6,4.6c-5.9,20.6-3.9,34.5-1.3,42.6
						C242.2-289,246.5-285.1,246.6-285z"/>
					<path class="st4" d="M71.7-400.1h7.6c0.5,3.7,1.2,6.8,2.1,9.3c2.8,8.5,7,12.5,7.2,12.6c1.5,1.4,1.7,3.7,0.3,5.3
						c-1.4,1.6-3.7,1.7-5.3,0.4C83-373.1,73.8-381.4,71.7-400.1z"/>
					<path class="st5" d="M206.7-330.7c-0.3-0.6-0.4-1.1-0.4-1.7c0-1.4,0.7-2.7,2-3.3c1.8-1,4.1-0.2,5.1,1.6
						c7.2,13.9,10.4,53.1,10.5,54.8c0.2,2.1-1.4,3.9-3.4,4c-2.1,0.2-3.9-1.4-4-3.4C216.4-279.2,213.3-318.2,206.7-330.7z"/>
					<path class="st4" d="M200.6-270.6c-2.1,0.2-3.9-1.4-4-3.4c0-0.4-3.2-39.4-9.7-51.9c-0.3-0.6-0.4-1.1-0.4-1.7
						c0-1.4,0.7-2.7,2-3.3c1.8-1,4.1-0.2,5.1,1.6c7.2,13.9,10.4,53.1,10.5,54.8C204.2-272.5,202.7-270.7,200.6-270.6z"/>
					<path class="st2" d="M334.8-308.7c0.8,1.9-0.1,4.1-2,4.9c-9.3,3.9-35.2,15.5-42.9,22.7c-1.5,1.4-3.9,1.3-5.3-0.2
						c-0.7-0.7-1-1.6-1-2.6s0.4-2,1.2-2.7c10.2-9.5,43.7-23.5,45.1-24.1C331.8-311.5,334-310.6,334.8-308.7z"/>
					<path class="st5" d="M124.6-365.9l-6.5-34.2h7.6l5.4,28.6l23.2-8l-4.2-20l-12.5,8.9c-1.7,1.2-4,0.8-5.2-0.9
						c-1.2-1.7-0.8-4,0.9-5.2l4.7-3.4h19.6l4.7,22.2c0.4,1.8-0.7,3.7-2.4,4.3l-30.4,10.5c-1,0.4-2.2,0.2-3.1-0.3
						S124.8-364.8,124.6-365.9z"/>
					<path class="st5" d="M172-375.6c-2,0.3-4-1.1-4.3-3.1l-3.2-21.4h7.6l3.1,20.2C175.5-377.8,174.1-375.9,172-375.6z"/>
					<path class="st1" d="M272.5-357.8c-1.9,0.8-4.1-0.2-4.9-2.1c-0.2-0.5-0.3-0.9-0.3-1.4c0-1.5,0.9-2.9,2.4-3.5l69.2-27.4
						l-8.2-7.9h10.9l6.8,6.5c0.9,0.9,1.3,2.2,1.1,3.4c-0.2,1.3-1.1,2.3-2.3,2.8L272.5-357.8z"/>
					<path class="st3" d="M344.2-294.1c-1-0.5-1.8-1.5-2-2.6s0.1-2.3,0.8-3.2l26.8-31.8l-30.6-8.1c-1.2-0.3-2.1-1.2-2.5-2.3
						c-0.2-0.4-0.2-0.9-0.2-1.3c0-0.7,0.2-1.5,0.6-2.1l20.2-30.2c1.2-1.7,3.5-2.2,5.2-1c1.7,1.2,2.2,3.5,1,5.2l-17.3,25.8l31.3,8.3
						c1.2,0.3,2.2,1.3,2.6,2.5s0.1,2.6-0.7,3.5l-27.5,32.6l30.3,14.9c1.9,0.9,2.6,3.2,1.7,5c-0.9,1.9-3.2,2.6-5,1.7L344.2-294.1z"/>
					<path class="st2" d="M212.1-150c-1.4-1.5-1.3-3.9,0.3-5.3l23.1-20.7l-28.3-15.8c-1.1-0.6-1.8-1.8-1.9-3.1c0-0.1,0-0.1,0-0.2
						c0-1.2,0.6-2.3,1.6-3.1l34.7-24.8l-25.7-21.9c-1.6-1.3-1.8-3.7-0.4-5.3c1.3-1.6,3.7-1.8,5.3-0.4l29.3,25c0.9,0.7,1.4,1.9,1.3,3
						c0,1.2-0.6,2.2-1.6,2.9L216-195.6l27.7,15.4c1.1,0.6,1.8,1.7,1.9,2.9c0.1,1.2-0.3,2.4-1.2,3.2l-27,24.2
						C215.9-148.3,213.5-148.5,212.1-150z"/>
					<path class="st3" d="M41.5-400.1h9.9l-14.5,17c-0.7,0.9-1.9,1.4-3,1.3c-1.2,0-2.2-0.6-2.9-1.6l-12-16.7h9.2l6,8.4L41.5-400.1z"
						/>
					<path class="st3" d="M388.5-387.6c-1.2,0.1-2.4-0.3-3.2-1.2l-10.1-11.3h10.1l2.1,2.3l1.3-2.3h8.6l-5.9,10.6
						C390.8-388.5,389.7-387.8,388.5-387.6z"/>
					<path class="st3" d="M56.2-17.4c1.3-1.6,3.7-1.8,5.3-0.4c1.6,1.3,1.8,3.7,0.4,5.3L51.3-0.1h-9.9L56.2-17.4z"/>
					<path class="st3" d="M6.2-27.9c1.3-0.1,2.5,0.5,3.3,1.6L28.2-0.1H19L6.8-17.2L0-5v-15.4L3.2-26C3.8-27.1,4.9-27.9,6.2-27.9z"/>
					<path class="st3" d="M366.7-20.9l18.6,20.8h-10.1L361-15.9c-0.6-0.7-1-1.6-1-2.5c0-1,0.4-2.1,1.2-2.8
						C362.9-22.6,365.3-22.4,366.7-20.9z"/>
					<polygon class="st3" points="397.3,-0.1 388.7,-0.1 400,-20.4 400,-5 					"/>
					<path class="st4" d="M376.1-265.6c-0.1,1.5-1.1,2.8-2.5,3.3l-23.9,8.7l35.3,18.2c1.8,0.9,2.6,3.2,1.6,5.1
						c-0.9,1.8-3.2,2.6-5,1.6l-43-22.1c-1.3-0.7-2.1-2.1-2-3.6s1.1-2.8,2.5-3.3l23.9-8.7l-32.9-17c-1.3-0.7-2-2-2-3.3
						c0-0.6,0.1-1.2,0.4-1.7c1-1.8,3.2-2.6,5.1-1.6l40.5,20.9C375.4-268.5,376.2-267.1,376.1-265.6z"/>
					<path class="st4" d="M234.5-29.5c-0.2-2.1,1.3-3.9,3.4-4.1c10.8-1,18.7-10.6,17.7-21.4c-1-10.8-10.6-18.7-21.4-17.7
						c-2.1,0.2-3.9-1.3-4.1-3.4c0-0.1,0-0.2,0-0.4c0-1.9,1.5-3.5,3.4-3.7c14.9-1.4,28.2,9.6,29.6,24.5s-9.6,28.2-24.5,29.6
						C236.5-26,234.7-27.5,234.5-29.5z"/>
					<path class="st3" d="M251.4-114c1.9-0.8,4.1,0.1,4.9,2s-0.1,4.1-2,4.9c-9.3,3.9-35.2,15.5-42.9,22.7c-1.5,1.4-3.9,1.3-5.3-0.2
						c-0.7-0.7-1-1.6-1-2.6s0.4-2,1.2-2.7C216.4-99.5,250-113.4,251.4-114z"/>
					<path class="st3" d="M40.9-119.3c-0.2-1.1,0.1-2.3,0.8-3.2l26.8-31.8l-30.6-8.1c-1.2-0.3-2.1-1.2-2.5-2.3
						c-0.2-0.4-0.2-0.9-0.2-1.3c0-0.7,0.2-1.5,0.6-2.1L56-198.3c1.2-1.7,3.5-2.2,5.2-1s2.2,3.5,1,5.2l-17.3,25.8l31.3,8.3
						c1.2,0.3,2.2,1.3,2.6,2.5s0.1,2.6-0.7,3.5l-27.5,32.6l30.3,14.9c1.9,0.9,2.6,3.2,1.7,5c-0.9,1.9-3.2,2.6-5,1.7l-34.6-17
						C41.9-117.2,41.2-118.1,40.9-119.3z"/>
					<path class="st1" d="M192.5-31.9l23.9-8.7l-32.9-17c-1.3-0.7-2-2-2-3.3c0-0.6,0.1-1.2,0.4-1.7c1-1.8,3.2-2.6,5.1-1.6l40.5,20.9
						c1.3,0.7,2.1,2.1,2,3.6s-1.1,2.8-2.5,3.3l-23.8,8.7l35.3,18.2c1.8,0.9,2.6,3.2,1.6,5.1c-0.9,1.8-3.2,2.6-5.1,1.6l-43-22.3
						c-1.3-0.7-2.1-2.1-2-3.6C190.1-30.1,191.1-31.4,192.5-31.9z"/>
					<path class="st4" d="M270.4-274c-3.4,12.5-16.4,17.8-17,18c-1.9,0.8-4.1-0.2-4.8-2.1c-0.2-0.5-0.3-0.9-0.3-1.4
						c0-1.5,0.9-2.9,2.4-3.5c0.1,0,10.1-4.1,12.5-13c1.7-6.4-0.9-14.1-7.8-22.7c-1.3-1.6-1-4,0.6-5.3c1.6-1.3,4-1,5.3,0.6
						C269.7-292.7,272.8-282.8,270.4-274z"/>
					<path class="st1" d="M139.5-155.3c0-0.6,0.1-1.2,0.4-1.7c0.5-1,13.3-24.6,59.1-22.8c2.1,0.1,3.7,1.8,3.6,3.9
						c-0.1,2.1-1.8,3.7-3.9,3.6c-21.4-0.8-34.5,4.4-41.7,8.9c-7.6,4.8-10.5,9.8-10.5,9.9c-1,1.8-3.2,2.5-5,1.6
						C140.3-152.6,139.5-153.9,139.5-155.3z"/>
					<path class="st3" d="M207-141.9c-9.3,3.9-35.2,15.5-42.9,22.7c-1.5,1.4-3.9,1.3-5.3-0.2c-0.7-0.7-1-1.6-1-2.6s0.4-2,1.2-2.7
						c10.3-9.6,43.8-23.6,45.2-24.2c1.9-0.8,4.1,0.1,4.9,2C209.8-144.9,208.9-142.7,207-141.9z"/>
					<path class="st5" d="M167.3-148.9c1.6,1.3,1.9,3.6,0.7,5.3c-8.3,10.8-17.2,16.1-26.4,15.9c-12.9-0.3-21.1-11.7-21.5-12.2
						c-0.5-0.7-0.7-1.4-0.7-2.2c0-1.2,0.6-2.3,1.6-3.1c1.7-1.2,4-0.8,5.2,0.9c0.1,0.1,6.4,8.9,15.6,9c6.6,0.1,13.4-4.2,20.2-13
						C163.3-149.9,165.6-150.2,167.3-148.9z"/>
					<path class="st2" d="M145.3-283.6c-0.2-0.5-0.3-0.9-0.3-1.4c0-1.5,0.9-2.9,2.4-3.5c0.1,0,10.1-4.1,12.5-13
						c1.7-6.4-0.9-14.1-7.8-22.7c-1.3-1.6-1-4,0.6-5.3c1.6-1.3,4-1,5.3,0.6c8.5,10.6,11.6,20.5,9.2,29.4c-3.4,12.5-16.4,17.8-17,18
						C148.2-280.7,146-281.7,145.3-283.6z"/>
					<path class="st1" d="M35.3-61.7c-0.1,0.1-8,7.5-7,16.6c0.7,6.6,5.9,12.8,15.5,18.4c1.8,1,2.4,3.3,1.3,5.1
						c-1.1,1.8-3.3,2.4-5.1,1.3c-11.7-6.9-18.2-15-19.1-24.1c-0.1-0.8-0.1-1.6-0.1-2.3c0-11.7,9.1-20.1,9.5-20.5
						c1.5-1.4,3.9-1.3,5.3,0.2C36.9-65.4,36.8-63.1,35.3-61.7z"/>
					<path class="st3" d="M191.5-232.1V-265c0-1.1,0.5-2.2,1.4-2.9s2.1-1,3.2-0.7l44.2,10.1c2,0.5,3.3,2.5,2.8,4.5s-2.5,3.3-4.5,2.8
						l-39.7-9v26.1l15.9,11.5c1.7,1.2,2.1,3.6,0.8,5.2c-1.2,1.7-3.6,2-5.2,0.8l-17.3-12.5C192.1-229.8,191.5-230.9,191.5-232.1z"/>
					<path class="st2" d="M180.8-41.2c1.7,1.2,2,3.6,0.8,5.2c-1.2,1.7-3.6,2.1-5.2,0.8l-17.5-12.7c-1-0.7-1.5-1.8-1.5-3v-32.9
						c0-1.1,0.5-2.2,1.4-2.9c0.9-0.7,2.1-1,3.2-0.7l44.2,10.1c2,0.5,3.3,2.5,2.8,4.5s-2.5,3.3-4.5,2.8l-39.7-9v26.3L180.8-41.2z"/>
					<path class="st1" d="M368.8-108.1c-2,0.6-4.1-0.6-4.6-2.6c-0.1-0.3-0.1-0.7-0.1-1c0-1.6,1.1-3.1,2.7-3.6l32-9.1
						c-0.2-3,0.2-5.9,1.2-8.5v16L368.8-108.1z"/>
					<path class="st3" d="M353.4-211.8c-5.9,20.6-3.9,34.5-1.3,42.6c2.8,8.6,7,12.5,7.2,12.6c1.5,1.4,1.7,3.7,0.3,5.3
						c-1.4,1.6-3.7,1.7-5.3,0.4c-0.6-0.6-12.3-11.1-12.3-35.6c0-7.7,1.2-16.7,4.2-27.3c0.6-2,2.6-3.1,4.6-2.6
						C352.8-215.9,354-213.8,353.4-211.8z"/>
					<path class="st4" d="M319.5-202.4c-0.3-0.6-0.4-1.1-0.4-1.7c0-1.4,0.7-2.7,2-3.3c1.8-1,4.1-0.2,5.1,1.6
						c7.2,13.9,10.4,53.1,10.5,54.8c0.2,2.1-1.4,3.9-3.4,4c-2.1,0.2-3.9-1.4-4-3.4C329.1-150.8,326-189.9,319.5-202.4z"/>
					<path class="st2" d="M313.3-142.3c-2.1,0.2-3.9-1.4-4-3.4c0-0.4-3.2-39.4-9.7-51.9c-0.3-0.6-0.4-1.1-0.4-1.7
						c0-1.4,0.7-2.7,2-3.3c1.8-1,4.1-0.2,5.1,1.6c7.2,13.9,10.4,53.1,10.5,54.8C316.9-144.2,315.4-142.4,313.3-142.3z"/>
					<path class="st3" d="M9.7-247.7c0-1,0.4-1.9,1.1-2.6c11.2-11.4,33-16.1,33.9-16.3c2-0.4,4,0.9,4.4,2.9s-0.9,4-2.9,4.4
						c-0.2,0-20.4,4.4-30.1,14.2c-1.5,1.5-3.8,1.5-5.3,0C10.1-245.7,9.7-246.7,9.7-247.7z"/>
					<path class="st4" d="M4.6-219.5c0-1,0.4-1.9,1.1-2.6c11-11.1,47.4-26.2,49-26.8c1.9-0.8,4.1,0.1,4.9,2c0.8,1.9-0.1,4.1-2,4.9
						c-0.4,0.2-36.6,15.1-46.5,25.1c-1.5,1.5-3.8,1.5-5.3,0C5-217.5,4.6-218.5,4.6-219.5z"/>
					<path class="st2" d="M362.9-97.2c0.9,0.8,1.4,1.9,1.3,3c0,1.2-0.6,2.2-1.6,2.9l-33.8,24.2l27.7,15.4c1.1,0.6,1.8,1.7,1.9,2.9
						s-0.3,2.4-1.2,3.2l-27,24.2c-1.5,1.4-3.9,1.3-5.3-0.3c-1.4-1.5-1.3-3.9,0.3-5.3l23.1-20.7L320-63.5c-1.1-0.6-1.8-1.8-1.9-3.1
						c0-0.1,0-0.1,0-0.2c0-1.2,0.6-2.3,1.6-3.1l34.7-24.8l-25.7-21.9c-1.6-1.3-1.8-3.7-0.4-5.3c1.3-1.6,3.7-1.8,5.3-0.4L362.9-97.2z
						"/>
					<path class="st4" d="M374-175c8.5,10.6,11.6,20.5,9.2,29.4c-3.4,12.5-16.4,17.8-17,18c-1.9,0.8-4.1-0.2-4.8-2.1
						c-0.2-0.5-0.3-0.9-0.3-1.4c0-1.5,0.9-2.9,2.4-3.5c0.1,0,10.1-4.1,12.5-13c1.7-6.4-0.9-14.1-7.8-22.7c-1.3-1.6-1-4,0.6-5.3
						C370.3-176.9,372.7-176.6,374-175z"/>
					<path class="st5" d="M355.9-125.8c-0.5,2-2.5,3.3-4.5,2.8l-39.7-9v26.3l15.9,11.5c1.7,1.2,2.1,3.6,0.8,5.2
						c-1.2,1.7-3.6,2.1-5.2,0.8l-17.5-12.7c-1-0.7-1.5-1.8-1.5-3v-32.9c0-1.1,0.5-2.2,1.4-2.9s2.1-1,3.2-0.7l44.2,10.1
						C355.1-129.8,356.3-127.8,355.9-125.8z"/>
					<path class="st1" d="M170.3-337.1c2-0.6,4.1,0.5,4.7,2.5l11.8,38.1c0.2,0.8,0.2,1.7-0.1,2.5L175-263.7
						c-0.7,1.9-2.9,2.9-4.8,2.1c-1.5-0.6-2.4-2-2.4-3.5c0-0.4,0.1-0.9,0.3-1.3l11.3-29.2L168-332.4
						C167.3-334.4,168.4-336.5,170.3-337.1z"/>
					<path class="st5" d="M181.7-212c2.3,0.8,4.7,1.1,7,1.9c4.6,1.6,8.6,4.6,11.3,8.7c2.3,3.5-3.3,6.8-5.6,3.3s-6.1-5.5-10.1-6.4
						c-2.2-0.5-4.3-1-6.3-1.9c-1.9-0.9-3.3-3.3-4.2-5c-2.4-4.2-2.2-9.2-2.1-13.9c0.1-2.7-0.2-4.9-2.2-6.9c-1.5-1.5-4.3-2.1-6.1-2.9
						c-4.3-2.1-8.8-4.5-11.3-8.8c-2.6-4.4,0.1-9.4,1-13.8c1-5-4.2-7.9-7.5-10.5c-1.7-1.4-3.6-2.2-5.5-3.4c-1.8-1.1-3.3-2.9-5.3-3.7
						c-3.9-1.5-2.2-7.7,1.7-6.3c2.1,0.8,4,1.9,5.6,3.4s3.9,2.2,5.7,3.4c3.9,2.8,9,6.1,10.9,10.6s0.4,9-0.8,13.4
						c-0.8,2.7,0,4.1,2,5.9c1.9,1.7,4.5,2.8,6.8,3.9c2.1,1,4.3,1.6,6.2,2.9c2.1,1.5,3.5,3.6,4.5,5.9c2,4.9,0.1,10.3,1.3,15.4
						C179-215.1,180.1-212.6,181.7-212z"/>
					<path class="st5" d="M242.4-139.7c-4.1,2.6-9.1,2.7-13.8,2.8c-2.7,0.1-4.9,0.5-6.8,2.5c-1.4,1.5-1.8,4.4-2.6,6.3
						c-1.8,4.4-4,9-8.2,11.8c-4.3,2.8-9.4,0.4-13.8-0.3c-5-0.8-7.6,4.6-10.1,8c-1.3,1.8-2,3.8-3.1,5.7c-1,1.9-2.7,3.4-3.4,5.5
						c-1.3,4-7.6,2.6-6.3-1.4c0.7-2.1,1.7-4.1,3.1-5.8c1.4-1.7,2-4,3.1-5.9c2.6-4.1,5.6-9.3,10.1-11.4c4.4-2.1,8.9-0.9,13.4,0.1
						c2.7,0.6,4-0.2,5.8-2.3c1.6-2,2.6-4.6,3.6-7c0.9-2.1,1.4-4.4,2.6-6.3c1.4-2.1,3.4-3.7,5.7-4.7c4.8-2.2,10.3-0.6,15.3-2.1
						c1.5-0.5,4.1-1.7,4.6-3.3c0.7-2.3,0.9-4.7,1.5-7.1c1.3-4.7,4.1-8.9,8.1-11.8c3.4-2.5,6.9,3,3.6,5.4c-3.4,2.5-5.2,6.4-5.9,10.4
						c-0.4,2.2-0.8,4.3-1.6,6.4C246.5-142.3,244.1-140.8,242.4-139.7z"/>
					<path class="st2" d="M398.6-160.6c-1.9-0.9-3.3-3.3-4.2-5c-2.4-4.2-2.2-9.2-2.1-13.9c0.1-2.7-0.2-4.9-2.2-6.9
						c-1.5-1.5-4.3-2.1-6.1-2.9c-4.3-2.1-8.8-4.5-11.3-8.8c-2.6-4.4,0.1-9.4,1-13.8c1-5-4.2-7.9-7.5-10.5c-1.8-1.4-3.6-2.2-5.5-3.4
						c-1.8-1.1-3.3-2.9-5.3-3.7c-3.9-1.5-2.2-7.7,1.7-6.3c2.1,0.8,4,1.9,5.6,3.4s3.9,2.2,5.7,3.4c3.9,2.8,9,6.1,10.9,10.6
						s0.4,9-0.8,13.4c-0.8,2.7,0,4.1,2,5.9c1.9,1.7,4.5,2.8,6.8,3.9c2.1,1,4.3,1.6,6.2,2.9c2.1,1.5,3.5,3.6,4.5,5.9
						c2,4.9,0.1,10.3,1.3,15.4c0.2,0.6,0.4,1.4,0.8,2.1v8.6C399.5-160.2,399.1-160.4,398.6-160.6z"/>
					<path class="st4" d="M131.7-253.2c1.4-0.3,2.9,0.3,3.8,1.4l23.9,32.1c1.2,1.7,0.9,4-0.8,5.2s-4,0.9-5.2-0.8L134.2-241
						l-10.1,41.7c-0.4,1.6-1.8,2.8-3.4,2.9c-1.6,0.1-3.2-0.9-3.7-2.5l-9.9-27.1c-0.2-0.4-0.2-0.9-0.2-1.3c0-1.5,0.9-3,2.5-3.5
						c1.9-0.7,4.1,0.3,4.8,2.2l5.7,15.5l9.1-37.4C129.2-251.8,130.3-252.9,131.7-253.2z"/>
					<path class="st2" d="M4.7-319.5c-0.8-0.7-1.3-1.8-1.3-2.8c0-0.3,0-0.7,0.1-1c0.4-1.4,1.6-2.4,3-2.7l37.9-6.5l-15.1-6.7
						c-1.9-0.8-2.7-3.1-1.9-5s3.1-2.7,5-1.9l26.4,11.8c1.5,0.7,2.4,2.3,2.2,3.9c-0.2,1.6-1.5,3-3.1,3.2L15.6-320L40-299.1
						c1.6,1.3,1.8,3.7,0.4,5.3c-1.3,1.6-3.7,1.8-5.3,0.4L4.7-319.5z"/>
					<path class="st2" d="M44.5-71c0.4-1.4,1.6-2.5,3-2.7l37.9-6.5l-15.1-6.7c-1.9-0.8-2.7-3.1-1.9-5c0.8-1.9,3.1-2.7,5-1.9L99.8-82
						c1.5,0.7,2.4,2.3,2.2,3.9c-0.2,1.6-1.5,2.9-3.1,3.2l-42.3,7.2L81-46.8c1.6,1.3,1.8,3.7,0.4,5.3c-1.3,1.6-3.7,1.8-5.3,0.4
						L45.7-67.2c-0.8-0.7-1.3-1.8-1.3-2.8C44.4-70.3,44.5-70.7,44.5-71z"/>
					<path class="st1" d="M102-255.3c0.2,2.1-1.3,3.9-3.4,4.1l-24.5,2.4c-1.3,0.1-2.6-0.4-3.3-1.5c-0.5-0.7-0.8-1.5-0.8-2.3
						c0-0.4,0.1-0.9,0.2-1.3l10-26.4c0.7-1.9,2.9-2.9,4.8-2.2c1.9,0.7,2.9,2.9,2.2,4.8l-7.9,20.8l18.5-1.8
						C100-258.9,101.8-257.4,102-255.3z"/>
					<path class="st5" d="M329-225.4c0.2,2.1-1.3,3.9-3.4,4.1l-24.5,2.4c-1.3,0.1-2.6-0.4-3.3-1.5c-0.5-0.7-0.8-1.5-0.8-2.3
						c0-0.4,0.1-0.9,0.2-1.3l10-26.4c0.7-1.9,2.9-2.9,4.8-2.2s2.9,2.9,2.2,4.8l-7.9,20.8l18.5-1.8C327-229,328.8-227.5,329-225.4z"
						/>
					<path class="st5" d="M46.9-290.2c0-0.2-0.1-0.5-0.1-0.7c0-1.8,1.2-3.3,3-3.7l23.2-4.5c1.4-0.3,2.8,0.3,3.7,1.4
						c0.9,1.1,1,2.7,0.4,4l-13.8,27.3c-0.9,1.8-3.2,2.6-5,1.6c-1.8-0.9-2.6-3.2-1.6-5L67-290.3l-15.6,3.1
						C49.3-286.9,47.3-288.2,46.9-290.2z"/>
					<path class="st2" d="M292.8-139.7c0.7,2-0.3,4.1-2.3,4.8l-20.9,7.5l13.3,12.9c1.5,1.4,1.5,3.8,0.1,5.3s-3.8,1.5-5.3,0.1
						L260-126.2c-0.7-0.7-1.1-1.7-1.1-2.7c0-0.3,0-0.5,0.1-0.8c0.3-1.3,1.2-2.3,2.4-2.7l26.6-9.5C290-142.7,292.1-141.7,292.8-139.7
						z"/>
					<path class="st4" d="M384.6-97.8c-0.7-0.7-1.1-1.7-1.1-2.7c0-0.3,0-0.5,0.1-0.8c0.3-1.3,1.2-2.3,2.4-2.7l14-5.1v8l-5.9,2.1
						l5.9,5.7v10.4L384.6-97.8z"/>
					<path class="st1" d="M9.7-281.5c0.7,7.2-1.5,14.3-6.1,19.9c-1.1,1.2-2.3,2.5-3.6,3.5v-11.6c1.8-3.4,2.6-7.3,2.3-11.2
						c-0.3-2.7-1.1-5.2-2.3-7.4v-11.6C5.4-295.5,9-289,9.7-281.5z"/>
					<path class="st5" d="M15.2-56.1c0,10.4-6.3,19.3-15.2,23.3v-8.6c4.6-3.2,7.7-8.6,7.7-14.7S4.7-67.6,0-70.8v-8.6
						C8.9-75.4,15.2-66.5,15.2-56.1z"/>
					<path class="st4" d="M0-377.2c0.2,0,0.3,0,0.5,0c12.2,0,22.1,9.9,22.1,22.1S12.7-333,0.5-333c-0.2,0-0.3,0-0.5,0v-7.5
						c0.2,0,0.3,0,0.5,0c8.1,0,14.6-6.6,14.6-14.6c0-8.1-6.6-14.6-14.6-14.6c-0.2,0-0.3,0-0.5,0V-377.2z"/>
					<path class="st1" d="M1.2-135.4c2.5-4.5,6.7-7.8,11.7-9.2c10.3-2.9,21.1,3.1,24,13.4c0.6,2-0.6,4.1-2.6,4.6
						c-2,0.6-4.1-0.6-4.6-2.6c-1.8-6.3-8.4-10-14.7-8.2c-3.1,0.9-5.6,2.9-7.2,5.7c-1.6,2.8-1.9,6-1.1,9.1c0.3,1,0.2,2-0.3,2.9
						s-1.3,1.5-2.3,1.8l-4.1,1v-16C0.3-133.8,0.7-134.6,1.2-135.4z"/>
					<path class="st2" d="M2.3-166c2.3,0.8,4.7,1.1,7,1.9c4.6,1.6,8.6,4.6,11.3,8.7c2.3,3.5-3.3,6.8-5.6,3.3s-6.1-5.5-10.1-6.4
						c-1.7-0.4-3.3-0.8-4.9-1.4v-8.6C0.6-167.5,1.3-166.4,2.3-166z"/>
					<path class="st4" d="M12.5-113.6c2-0.7,4.1,0.3,4.8,2.3c0.7,1.9-0.3,4.1-2.3,4.8l-15,5.4v-8L12.5-113.6z"/>
					<path class="st4" d="M7.5-86.1C9-84.7,9-82.3,7.6-80.8s-3.8,1.5-5.3,0.1L0-82.9v-10.4L7.5-86.1z"/>
					<path class="st2" d="M264.5-16.6l20.9-7.5L272.1-37c-1.5-1.4-1.5-3.8-0.1-5.3s3.8-1.5,5.3-0.1L295-25.3
						c0.9,0.9,1.3,2.2,1.1,3.5c-0.3,1.3-1.2,2.3-2.4,2.7l-26.6,9.5c-2,0.7-4.1-0.3-4.8-2.3c-0.2-0.4-0.2-0.8-0.2-1.3
						C262-14.6,262.9-16,264.5-16.6z"/>
					<path class="st3" d="M305.6-74.2c1.2,1.7,0.9,4-0.8,5.2L287-55.7l16.5,8.5c1.8,0.9,2.6,3.2,1.6,5.1c-0.9,1.8-3.2,2.6-5,1.6
						l-21.9-11.3c-1.2-0.6-1.9-1.7-2-3c0-0.1,0-0.2,0-0.3c0-1.2,0.6-2.3,1.5-3l22.7-16.8C302-76.3,304.4-75.9,305.6-74.2z"/>
					<path class="st1" d="M299-155.9c-0.3,1.4-1.4,2.5-2.8,2.8l-29.8,7.2c-2,0.5-4-0.8-4.5-2.8c-0.1-0.3-0.1-0.6-0.1-0.9
						c0-1.7,1.2-3.2,2.9-3.6l22.3-5.4l-12.5-9.9c-1.6-1.3-1.9-3.6-0.6-5.3c1.3-1.6,3.6-1.9,5.3-0.6l18.5,14.7
						C298.8-158.8,299.3-157.3,299-155.9z"/>
					<path class="st1" d="M260.8-76.1c-0.1-0.3-0.1-0.6-0.1-0.9c0-1.7,1.2-3.2,2.9-3.6l22.3-5.4l-12.5-9.9c-1.6-1.3-1.9-3.6-0.6-5.3
						c1.3-1.6,3.6-1.9,5.3-0.6l18.5,14.7c1.1,0.9,1.6,2.3,1.3,3.7c-0.3,1.4-1.4,2.5-2.8,2.8l-29.8,7.2
						C263.3-72.9,261.3-74.1,260.8-76.1z"/>
					<path class="st1" d="M36.5-361.3c0-0.2,0-0.4,0-0.6c0.3-1.7,1.6-2.9,3.2-3.1l67.6-8.3l-11.1-26.8h8.1l11.9,28.5
						c0.5,1.1,0.4,2.3-0.2,3.3s-1.6,1.7-2.8,1.8l-59.5,7.3l23.4,10.9c1.7,0.8,2.6,2.8,2,4.6l-10.9,33.2c-0.6,2-2.8,3-4.7,2.4
						c-2-0.6-3-2.8-2.4-4.7l9.8-30l-32.2-15C37.3-358.6,36.5-359.9,36.5-361.3z"/>
					<path class="st4" d="M247.5-10.3c0.4-2,2.4-3.3,4.4-2.9s3.3,2.4,2.9,4.4c-0.6,3.1,0,6.2,1.5,8.7h-8.2c-0.7-2-1-4.1-1-6.3
						C247.1-7.6,247.2-9,247.5-10.3z"/>
					<path class="st4" d="M279.8-6.3c0.8-0.5,1.8-0.7,2.8-0.5L315.7,0h-39c0.7-1.2,1.2-2.5,1.5-3.9C278.4-4.9,279-5.8,279.8-6.3z"/>
					<path class="st4" d="M75.4-35.4c0.6-2,2.6-3.1,4.6-2.6c2,0.6,3.1,2.6,2.6,4.6c-4,14.1-4.4,25.1-3.3,33.3h-7.6
						c-0.3-2.5-0.5-5.2-0.5-8C71.3-15.8,72.4-24.9,75.4-35.4z"/>
					<path class="st5" d="M154-9.4c1.2,0.5,2,1.5,2.3,2.7l1.4,6.6H138l12.4-8.8C151.5-9.7,152.8-9.8,154-9.4z"/>
					<path class="st5" d="M115.1-16.1c0-1.7,1.2-3.3,2.9-3.7l45.4-10.3c1-0.2,2.1,0,2.9,0.6c0.9,0.6,1.4,1.5,1.6,2.5L172-0.1h-7.6
						l-3.3-21.7l-37.9,8.6l2.5,13.1h-7.6l-2.9-15.3C115.1-15.6,115.1-15.9,115.1-16.1z"/>
					<path class="st1" d="M317.6-17.8c1.4-1.5,3.8-1.6,5.3-0.1l18.7,17.8h-10.9l-13-12.4C316.2-13.9,316.2-16.3,317.6-17.8z"/>
					<path class="st1" d="M104.3-0.1h-8.1l-1.4-3.3c-0.8-1.9,0.1-4.1,2-4.9s4.1,0.1,4.9,2L104.3-0.1z"/>
					<path class="st3" d="M274.9-373.5L274.9-373.5c0,1.4-0.7,2.6-1.9,3.3l-20.4,11.5l24.8,10.4c1.2,0.5,2,1.6,2.2,2.9
						c0.2,1.3-0.3,2.6-1.2,3.4l-15.8,13.9l17.5,5.2c2,0.6,3.1,2.7,2.5,4.7s-2.7,3.1-4.7,2.5l-24-7.1c-1.3-0.4-2.3-1.5-2.6-2.8
						c-0.3-1.3,0.2-2.7,1.2-3.6l16.5-14.6l-26.3-11.1c-1.3-0.6-2.2-1.8-2.3-3.2s0.7-2.8,1.9-3.5l21.1-11.9l-32.1-17.2
						c-1.3-0.7-2-2-2-3.3c0-0.6,0.1-1.2,0.4-1.8c1-1.8,3.3-2.5,5.1-1.5l38.1,20.5C274.1-376.2,274.9-374.9,274.9-373.5z"/>
				</g>
			</g>
		</g>
	</g>
</pattern>
<pattern  id="SVGID_2_" xlink:href="#SVGID_1_" patternTransform="matrix(0.3543 0 0 -0.3543 -19887.1602 -11733.5146)">
</pattern>
<rect class="st6" width="141.7" height="62.5"/>
</svg>
